[img]http://imageshack.us/a/img252/4095/magicmikec.jpg[/img]

[b][size=200][color=black]PLOT[/color][/size][/b]

[code]A male stripper teaches a younger performer how to party, pick up women, and make easy money.[/code]

[b][size=200][color=black]IMDB[/color][/size][/b]

[code]http://www.imdb.com/title/tt1915581/[/code]

[b][size=200][color=black]MOVIE INFO[/color][/size][/b]

[code]Magic Mike [2012] BrRip x264 AAC-V3nom

Format                           : MPEG-4
Format profile                   : Base Media / Version 2
Codec ID                         : mp42
File size                        : 340 MiB
Duration                         : 1h 50mn
Overall bit rate                 : 430 Kbps
Encoded date                     : UTC 2012-10-14 19:11:09
Tagged date                      : UTC 2012-10-14 19:38:12

Video
ID                               : 1
Format                           : AVC
Format/Info                      : Advanced Video Codec
Format profile                   : Main@L2.1
Format settings, CABAC           : Yes
Format settings, ReFrames        : 4 frames
Codec ID                         : avc1
Codec ID/Info                    : Advanced Video Coding
Duration                         : 1h 50mn
Bit rate mode                    : Variable
Bit rate                         : 325 Kbps
Width                            : 640 pixels
Height                           : 272 pixels
Display aspect ratio             : 2.35:1
Frame rate mode                  : Variable
Frame rate                       : 23.976 fps
Minimum frame rate               : 23.974 fps
Maximum frame rate               : 90 000.000 fps
Color space                      : YUV
Chroma subsampling               : 4:2:0
Bit depth                        : 8 bits
Scan type                        : Progressive
Bits/(Pixel*Frame)               : 0.078
Stream size                      : 248 MiB (73%)
Writing library                  : x264 core 120
Encoded date                     : UTC 2012-10-14 19:11:09
Tagged date                      : UTC 2012-10-14 19:38:06

Audio
ID                               : 2
Format                           : AAC
Format/Info                      : Advanced Audio Codec
Format profile                   : LC
Codec ID                         : 40
Duration                         : 1h 50mn
Bit rate mode                    : Variable
Bit rate                         : 112 Kbps
Maximum bit rate                 : 125 Kbps
Channel(s)                       : 2 channels
Channel positions                : Front: L R
Sampling rate                    : 48.0 KHz
Compression mode                 : Lossy
Stream size                      : 88.5 MiB (26%)
Encoded date                     : UTC 2012-10-14 19:11:09
Tagged date                      : UTC 2012-10-14 19:38:05[/code]

[b][size=200][color=black]SOURCE[/color][/size][/b]

[code]Magic Mike[2012]BRRip XviD-ETRG (Thanks)[/code]

[b][size=200][color=black]SCREENSHOTS[/color][/size][/b]

[img]http://imageshack.us/a/img545/6566/magicmike2012brripx264a.jpg[/img]

[img]http://kastatic.com/i2/users/133df62bbf28e62494bb17fe11078f1a.gif[/img][img]http://kastatic.com/i2/users/133df62bbf28e62494bb17fe11078f1a.gif[/img]

